M48
;Layer_Color=9474304
;FILE_FORMAT=2:3
INCH,LZ
;TYPE=PLATED
T1F00S00C0.028
T2F00S00C0.030
T3F00S00C0.031
T4F00S00C0.033
T5F00S00C0.035
T6F00S00C0.039
T7F00S00C0.040
T8F00S00C0.041
T9F00S00C0.043
T10F00S00C0.126
%
T01
X02435Y0178
X0282Y0177
X02825Y0149
X0308Y01485
X01026Y01335
X00951
X00911Y0129
X00996Y01265
X00583Y01335
X00508
X00468Y0129
X00553Y01265
X00936Y023
X01236
X0156
X01639
X01921
X02
X02095Y0244
X01253Y0325
X01
Y0355
X01253
X029Y035
Y032
X0275Y03
X0245
X02467Y02507
X03023Y0216
T02
X00381Y02298
X00481Y02398
Y02198
X02Y03451
Y03549
T03
X02424Y00498
X02524
X02474Y00553
X02424Y00888
X02524
X02474Y00943
X025Y02
X026
X01659Y02614
X01559
Y02976
X01659
X00798Y02879
X00848Y02824
X00748
X025Y02362
X026
X0261Y0329
X0256Y0334
X0261Y0339
T04
X00342Y00531
X00481
X00617
X00825
X00959
X01093
X02905Y0195
X01086Y02014
Y01614
X01093Y00931
X00959
X00825
X00617
X00481
X00342
X003Y02699
X005
Y03099
X003
X005Y03305
X00668
X00813
X01405Y032
X01805
X02905Y0265
X00813Y03705
X00668
X005
T05
X0151Y00495
X0211
Y00595
Y00695
Y00795
Y00895
Y00995
Y01095
Y01195
Y01295
Y01395
Y01495
Y01595
Y01695
Y01795
Y01895
X0151
Y01795
Y01695
Y01595
Y01495
Y01395
Y01295
Y01195
Y01095
Y00995
Y00895
Y00795
Y00695
Y00595
T06
X00328Y01707
Y01807
Y01907
T07
X0278Y0038
X0288
X0312Y007
Y008
Y009
T08
X01597Y035
X01793
T09
X019Y02596
X021
Y03014
X019
X022Y03196
Y03614
T10
X002Y002
X032
Y038
X002
M30
